# xmcd
# 
# Track frame offsets:
#     182
#     16310
#     29917
#     40457
#     54475
#     75980
#     91830
#     105545
#     113622
#     127127
#     152700
#     165562
#     181385
#     194977
#     200485
#     215567
#     230437
#     248932
#     262615
#     279307
#     289290
# 
# Disc length: 3994
# 
# Revision: 9
# Processed by: cddbd v1.5.2PL0 Copyright (c) Steve Scherf et al.
# Submitted via: fre:ac v1.1beta1pre4
# 
DISCID=2c0f9815
DTITLE=Michael Martin Murphey - Cowboy Songs
DYEAR=1990
DGENRE=Western
TTITLE0=Cowboy Logic
TTITLE1=I Ride An Old Paint/Whoopee Ti-Yi-Yo, Git Along Little Doggies
TTITLE2=Tumbling Tumbleweeds
TTITLE3=Tying Knots In The Devil's Tail
TTITLE4=The Old Chisholm Trail
TTITLE5=Home On The Range
TTITLE6=What Am I Doing Here
TTITLE7=Wild Ripplin' Waters
TTITLE8=The Yellow Rose Of Texas
TTITLE9=Spanish Is The Lovin' Tongue
TTITLE10=Cowboy Pride
TTITLE11=Red River Valley
TTITLE12=Let The Cowboy Dance
TTITLE13=Jack Of Diamonds
TTITLE14=Texas Rangers
TTITLE15=When The Work's All Done This Fall
TTITLE16=The Streets Of Laredo
TTITLE17=O Bury Me Not On The Lone Prarie
TTITLE18=Where Do Cowboys Go When They Die/Reincarnation
TTITLE19=Goodby Old Paint
TTITLE20=Happy Trails
EXTD=YEAR: 1990
EXTT0=
EXTT1=
EXTT2=
EXTT3=
EXTT4=
EXTT5=
EXTT6=
EXTT7=
EXTT8=
EXTT9=
EXTT10=
EXTT11=
EXTT12=
EXTT13=
EXTT14=
EXTT15=
EXTT16=
EXTT17=
EXTT18=
EXTT19=
EXTT20=
PLAYORDER=
